<svg width="258" height="298" viewBox="0 0 258 298" fill="none" xmlns="http://www.w3.org/2000/svg">
<path d="M140 108C228 201 174.5 224.5 170.5 233.5C204.671 218.66 207 192.5 257.5 195C248.083 175.516 237.851 167.438 200.5 164C204.97 176.991 204.38 183.711 199.5 195C198.466 175.306 195.67 164.785 186.5 147C149 84.5 132.5 35.5 149.5 0C126.091 20.2597 121.756 41.3977 140 108Z" fill="#D9D9D9"/>
<path d="M135.5 119C197.5 183.5 202.5 224 120.5 249C126.358 237.87 136.5 242.5 135.5 220.5C134.5 198.5 129.725 200.614 117.5 188C46.5607 140.343 56.6058 123.16 57.5 94C60.0139 134.045 84.165 143.954 117.5 167C65.8023 115.703 53.3413 84.2264 63 36.5C69.0952 84.6647 82.9862 107.933 123 144C75.6707 84.3461 64.8188 54.8848 83.5 12C82.1674 60.743 101.906 81.4854 135.5 119Z" fill="#D9D9D9"/>
<path d="M94.5 281C69.3688 300.864 54.612 299.625 28 292C53.5 289 70.5 286.5 82.5 269C58.533 282.109 32.5 290.5 0 271C15.3921 270.044 28.2373 278.815 60.3927 269.033C24.4274 270.933 17.9387 264.95 7 256C27.9027 267.576 100.811 254.063 124.5 214C118.213 242.397 114.261 258.143 94.5 281Z" fill="#D9D9D9"/>
</svg>
